<svg width="512" height="512" viewBox="0 0 512 512" xmlns="http://www.w3.org/2000/svg" fill="none">
  <rect width="512" height="512" rx="32" fill="url(#g)"/>
  <g fill="#D4AF37" opacity="0.9">
    <rect x="80" y="160" width="96" height="240" rx="6" fill="#D4AF37"/>
    <rect x="208" y="112" width="112" height="288" rx="6" fill="#C9A13A"/>
    <rect x="352" y="192" width="80" height="208" rx="6" fill="#B89233"/>
    <!-- windows -->
    <g fill="#1A1F2B">
      <rect x="96" y="176" width="24" height="24" rx="3"/>
      <rect x="136" y="176" width="24" height="24" rx="3"/>
      <rect x="96" y="216" width="24" height="24" rx="3"/>
      <rect x="136" y="216" width="24" height="24" rx="3"/>
      <rect x="96" y="256" width="24" height="24" rx="3"/>
      <rect x="136" y="256" width="24" height="24" rx="3"/>

      <rect x="224" y="128" width="28" height="28" rx="3"/>
      <rect x="264" y="128" width="28" height="28" rx="3"/>
      <rect x="304" y="128" width="28" height="28" rx="3"/>
      <rect x="224" y="172" width="28" height="28" rx="3"/>
      <rect x="264" y="172" width="28" height="28" rx="3"/>
      <rect x="304" y="172" width="28" height="28" rx="3"/>
      <rect x="224" y="216" width="28" height="28" rx="3"/>
      <rect x="264" y="216" width="28" height="28" rx="3"/>
      <rect x="304" y="216" width="28" height="28" rx="3"/>

      <rect x="368" y="208" width="20" height="20" rx="3"/>
      <rect x="396" y="208" width="20" height="20" rx="3"/>
      <rect x="368" y="236" width="20" height="20" rx="3"/>
      <rect x="396" y="236" width="20" height="20" rx="3"/>
    </g>
  </g>
  <defs>
    <linearGradient id="g" x1="0" y1="0" x2="1" y2="1">
      <stop offset="0%" stop-color="#0A1929"/>
      <stop offset="100%" stop-color="#0A0F18"/>
    </linearGradient>
  </defs>
</svg>
